<?xml version="1.0" encoding="UTF-8"?>
<!--Generator: Apple Native CoreSVG 326-->
<!DOCTYPE svg
PUBLIC "-//W3C//DTD SVG 1.1//EN"
       "http://www.w3.org/Graphics/SVG/1.1/DTD/svg11.dtd">
<svg version="1.1" xmlns="http://www.w3.org/2000/svg" xmlns:xlink="http://www.w3.org/1999/xlink" viewBox="0 0 16.3438 15.9453">
 <g>
  <rect height="15.9453" opacity="0" width="16.3438" x="0" y="0"/>
  <path d="M7.96875 15.9375C12.3672 15.9375 15.9375 12.3672 15.9375 7.96875C15.9375 3.57031 12.3672 0 7.96875 0C3.57031 0 0 3.57031 0 7.96875C0 12.3672 3.57031 15.9375 7.96875 15.9375ZM7.96875 14.6094C4.29688 14.6094 1.32812 11.6406 1.32812 7.96875C1.32812 4.29688 4.29688 1.32812 7.96875 1.32812C11.6406 1.32812 14.6094 4.29688 14.6094 7.96875C14.6094 11.6406 11.6406 14.6094 7.96875 14.6094Z" fill="black"/>
  <path d="M7.10938 11.6797C7.36719 11.6797 7.58594 11.5547 7.74219 11.3125L11.3125 5.69531C11.3984 5.53906 11.5 5.36719 11.5 5.19531C11.5 4.84375 11.1875 4.61719 10.8594 4.61719C10.6641 4.61719 10.4688 4.74219 10.3203 4.96875L7.07812 10.1719L5.53906 8.17969C5.35156 7.92969 5.17969 7.86719 4.96094 7.86719C4.625 7.86719 4.35938 8.14062 4.35938 8.48438C4.35938 8.65625 4.42969 8.82031 4.53906 8.96875L6.44531 11.3125C6.64062 11.5703 6.85156 11.6797 7.10938 11.6797Z" fill="black"/>
 </g>
</svg>
